# xmcd
#
# Track frame offsets:
#	150
#	11695
#	23157
#	34972
#	45792
#	56853
#	66802
#	79233
#	90873
#	103191
#	118818
#	127815
#
# Disc length: 1840 seconds
#
# Revision: 1
# Processed by: cddbd v1.5.2PL0 Copyright (c) Steve Scherf et al.
# Submitted via: audiograbber 1.83.01
#
DISCID=93072e0c
DTITLE=Ronny - Über Länder und Meere
DYEAR=1968
DGENRE=Country
TTITLE0=Ganz allein
TTITLE1=Ihr Mädchen so schön
TTITLE2=Donna Gelina (Town Of El Paso)
TTITLE3=Rebecca
TTITLE4=Das Haus am alten Ohio
TTITLE5=Es waren zwei Königskinder
TTITLE6=Vergiß mich, mein Liebling
TTITLE7=Sterne funkeln in der Nacht
TTITLE8=Dort am See im alten Garten
TTITLE9=Ay, Ay Ay, (Cielito Lindo)
TTITLE10=Fern In Idaho
TTITLE11=Rose Marie
EXTD=
EXTT0=
EXTT1=
EXTT2=
EXTT3=
EXTT4=
EXTT5=
EXTT6=
EXTT7=
EXTT8=
EXTT9=
EXTT10=
EXTT11=
PLAYORDER=
